<svg width="130" height="34" viewBox="0 0 130 34" fill="none" xmlns="http://www.w3.org/2000/svg">
<g clip-path="url(#clip0_527_1818)">
<path d="M75.7539 9.48837L83.2417 6.72093L75.7539 3.87442V0L88.5787 5.13953V8.30233L75.7539 13.4419V9.48837Z" fill="#A100FF"/>
<path d="M4.93873 33.9999C2.23039 33.9999 0 32.6557 0 29.6511V29.4929C0 25.8557 3.18627 24.5906 7.08946 24.5906H8.92157V23.879C8.92157 22.3766 8.28431 21.5069 6.69118 21.5069C5.25735 21.5069 4.54044 22.2976 4.46078 23.4045H0.477941C0.796569 20.0836 3.42525 18.5022 6.93015 18.5022C10.5147 18.5022 13.1434 20.0045 13.1434 23.7208V33.6836H9.08088V31.9441C8.28431 33.0511 6.93015 33.9999 4.93873 33.9999ZM8.92157 28.7813V27.358H7.24878C5.1777 27.358 4.14216 27.9115 4.14216 29.2557V29.4138C4.14216 30.4418 4.77941 31.1534 6.21324 31.1534C7.64706 31.0743 8.92157 30.2836 8.92157 28.7813ZM22.6226 33.9999C18.4804 33.9999 15.4534 31.4697 15.4534 26.4092V26.172C15.4534 21.1115 18.6397 18.4232 22.6226 18.4232C26.0478 18.4232 28.8358 20.1627 29.1544 24.0371H25.1716C24.9326 22.6138 24.136 21.665 22.7022 21.665C20.9498 21.665 19.6752 23.0883 19.6752 26.0139V26.4883C19.6752 29.4929 20.7904 30.8371 22.7022 30.8371C24.136 30.8371 25.1716 29.8092 25.4105 28.1487H29.2341C28.9951 31.6278 26.6851 33.9999 22.6226 33.9999ZM38.2353 33.9999C34.0931 33.9999 31.0662 31.4697 31.0662 26.4092V26.172C31.0662 21.1115 34.2525 18.4232 38.2353 18.4232C41.6605 18.4232 44.4485 20.1627 44.7672 24.0371H40.7843C40.5453 22.6138 39.7488 21.665 38.315 21.665C36.5625 21.665 35.288 23.0883 35.288 26.0139V26.4883C35.288 29.4929 36.4032 30.8371 38.315 30.8371C39.7488 30.8371 40.7843 29.8092 41.0233 28.1487H44.8468C44.6078 31.6278 42.2978 33.9999 38.2353 33.9999ZM53.9277 33.9999C49.6262 33.9999 46.6789 31.4697 46.6789 26.4883V26.172C46.6789 21.1906 49.7855 18.4232 53.848 18.4232C57.5919 18.4232 60.6985 20.479 60.6985 25.4604V27.279H50.9007C51.0601 29.9673 52.2549 30.9952 54.0074 30.9952C55.6005 30.9952 56.4767 30.1255 56.7954 29.0976H60.6985C60.2206 31.865 57.8309 33.9999 53.9277 33.9999ZM50.9804 24.5115H56.5564C56.4767 22.2976 55.4412 21.3487 53.7684 21.3487C52.4939 21.4278 51.299 22.1394 50.9804 24.5115ZM63.2476 18.8185H67.4694V21.0325C68.1863 19.6092 69.6998 18.5022 72.0098 18.5022C74.7181 18.5022 76.5503 20.1627 76.5503 23.7208V33.6836H72.3284V24.3534C72.3284 22.6138 71.6115 21.8232 70.098 21.8232C68.6642 21.8232 67.4694 22.6929 67.4694 24.5906V33.6836H63.2476V18.8185ZM84.277 14.3115V18.8185H87.1446V21.9022H84.277V28.9394C84.277 30.0464 84.7549 30.5999 85.7904 30.5999C86.4277 30.5999 86.826 30.5208 87.2243 30.3627V33.6045C86.7463 33.7627 85.8701 33.9208 84.8346 33.9208C81.5686 33.9208 80.0552 32.4185 80.0552 29.4138V21.9022H78.3027V18.8185H80.0552V16.0511L84.277 14.3115ZM102.917 33.6836H98.7745V31.4697C98.0576 32.8929 96.6238 33.9999 94.3934 33.9999C91.6851 33.9999 89.6936 32.3394 89.6936 28.8604V18.8185H93.9154V28.3069C93.9154 30.0464 94.6324 30.8371 96.0662 30.8371C97.5 30.8371 98.6949 29.8883 98.6949 28.0697V18.8185H102.917V33.6836ZM106.023 18.8185H110.245V21.5859C111.121 19.6092 112.555 18.6604 114.786 18.6604V22.772C111.918 22.772 110.245 23.6418 110.245 26.0929V33.7627H106.023V18.8185ZM123.309 33.9999C119.007 33.9999 116.06 31.4697 116.06 26.4883V26.172C116.06 21.1906 119.167 18.4232 123.229 18.4232C126.973 18.4232 130.08 20.479 130.08 25.4604V27.279H120.362C120.521 29.9673 121.716 30.9952 123.468 30.9952C125.061 30.9952 125.938 30.1255 126.256 29.0976H130.159C129.522 31.865 127.212 33.9999 123.309 33.9999ZM120.282 24.5115H125.938C125.858 22.2976 124.822 21.3487 123.15 21.3487C121.875 21.4278 120.68 22.1394 120.282 24.5115Z" fill="white"/>
</g>
<defs>
<clipPath id="clip0_527_1818">
<rect width="130" height="34" fill="white"/>
</clipPath>
</defs>
</svg>
