<svg width="27" height="34" viewBox="0 0 27 34" fill="none" xmlns="http://www.w3.org/2000/svg">
<g clip-path="url(#clip0_527_1822)">
<path d="M26.1542 11.6C23.9422 13 22.5759 15.4 22.5759 18.0667C22.5759 21.0667 24.3325 23.8 27 24.9333C26.4795 26.6667 25.6988 28.2667 24.7229 29.7333C23.2916 31.8 21.7952 33.9333 19.5831 33.9333C17.3711 33.9333 16.7205 32.6 14.1181 32.6C11.5807 32.6 10.6699 34 8.58795 34C6.50602 34 5.0747 32.0667 3.44819 29.6667C1.3012 26.3333 0.0650602 22.4667 0 18.4C0 11.8 4.16386 8.26667 8.32771 8.26667C10.5398 8.26667 12.3614 9.73333 13.7277 9.73333C15.0289 9.73333 17.1108 8.2 19.5831 8.2C22.1855 8.13333 24.6578 9.4 26.1542 11.6ZM18.412 5.4C19.5181 4.06667 20.1036 2.4 20.1687 0.666667C20.1687 0.466667 20.1687 0.2 20.1036 0C18.2169 0.2 16.4602 1.13333 15.2241 2.6C14.1181 3.86667 13.4675 5.46667 13.4024 7.2C13.4024 7.4 13.4024 7.6 13.4675 7.8C13.5976 7.8 13.7928 7.86667 13.9229 7.86667C15.6795 7.73333 17.306 6.8 18.412 5.4Z" fill="white"/>
</g>
<defs>
<clipPath id="clip0_527_1822">
<rect width="27" height="34" fill="white"/>
</clipPath>
</defs>
</svg>
