<svg width="213" height="35" viewBox="0 0 213 35" fill="none" xmlns="http://www.w3.org/2000/svg">
<g clip-path="url(#clip0_527_1839)">
<path d="M76.3366 22.9029H77.9939V27.0146H75.1102C73.0882 27.0146 71.9944 25.9272 71.9944 23.8544V8.83495L76.3366 6.28641V22.9029ZM97.683 14.6796C97.683 9.34466 95.4622 6.76214 90.8548 6.76214C88.0374 6.76214 86.0486 8.66505 84.9547 9.85437V7.1699H80.6457V27.0146H84.9879V18.0097C84.9879 17.1602 85.0542 16.4466 85.2199 15.8689C85.8828 13.3544 88.1036 11.0437 90.5896 11.0437C92.6779 11.0437 93.3408 12.0631 93.3408 15.2913V23.8204C93.3408 25.8932 94.4015 26.9806 96.4234 26.9806H99.3072V22.9029H97.6499V14.6796H97.683ZM17.6008 19.0291C17.6008 23.8204 14.2862 27.0146 9.34734 27.0146H0V0.101942H9.04902C13.557 0.101942 16.6064 3.02427 16.6064 7.37379C16.6064 9.51456 15.8441 11.3495 14.4851 12.6408C16.4407 13.966 17.6008 16.2767 17.6008 19.0291ZM4.4085 10.9078H9.04902C10.9384 10.9078 12.1648 9.58252 12.1648 7.57767C12.1648 5.57282 11.0047 4.34951 9.01587 4.34951H4.4085V10.9078ZM13.0598 18.9612C13.0598 16.5825 11.5682 15.0534 9.28105 15.0534H4.4085V22.767H9.34734C11.6676 22.801 13.0598 21.3738 13.0598 18.9612ZM74.2815 5.43689C75.74 5.43689 76.9333 4.21359 76.9333 2.71845C76.9333 1.2233 75.74 0 74.2815 0C72.8231 0 71.6298 1.2233 71.6298 2.71845C71.6298 4.21359 72.8231 5.43689 74.2815 5.43689ZM37.1242 18.2816H23.965C24.3959 21.3398 26.5836 23.3107 29.6331 23.3107C32.1853 23.3107 33.9421 21.6116 34.141 21.4417L35.0028 20.5243L37.2568 24.0922L36.6601 24.6699C36.5607 24.7718 33.8427 27.4903 29.5336 27.4903C23.6998 27.4903 19.4571 23.1748 19.4571 17.2282C19.4571 11.1456 23.3684 6.93204 29.0033 6.93204C34.7045 6.93204 37.2899 11.5534 37.2899 16.1068C37.2899 16.5485 37.2236 17.3301 37.2236 17.432L37.1242 18.2816ZM32.7488 14.3398C32.3511 12.165 30.9589 10.9078 28.9701 10.9078C26.7493 10.9078 25.0257 12.165 24.2633 14.3398H32.7488ZM54.7582 22.9029H56.4155V27.0146H53.598C51.9076 27.0146 51.1452 26.267 50.7806 25.3835C49.7199 26.4369 48.0957 27.4563 45.7092 27.4563C42.2951 27.4563 38.8147 25.2816 38.8147 21.1699C38.8147 14.034 47.698 14 50.6149 14C50.4823 11.8932 49.2227 10.9757 47.1013 10.9757C44.6485 10.9757 42.8254 12.4369 42.8254 12.4369L41.9636 13.1845L39.8091 9.6165L40.4388 9.03883C40.5383 8.93689 43.0574 6.76214 47.267 6.76214C52.007 6.76214 54.725 9.6165 54.725 14.6116V22.9029H54.7582ZM50.648 17.9078C45.3777 17.9078 43.0243 18.8932 43.0243 21.1019C43.0243 22.3252 43.9524 23.5825 46.0738 23.5825C48.7255 23.6165 50.5486 20.6942 50.648 17.9078ZM139.348 8.63107C139.348 13.6942 135.868 17.2621 130.863 17.2621H126.255V27.0146H121.847V0.101942H130.863C135.835 0.101942 139.348 3.63592 139.348 8.63107ZM134.84 8.63107C134.84 5.9466 133.249 4.34951 130.564 4.34951H126.255V13.0146H130.531C133.249 13.0485 134.84 11.3835 134.84 8.63107ZM159.733 17.0243C159.733 22.8689 155.292 27.4563 149.591 27.4563C143.889 27.4563 139.415 22.8689 139.415 17.0243C139.415 11.2816 143.856 6.76214 149.557 6.76214C155.259 6.76214 159.733 11.2816 159.733 17.0243ZM155.325 17.0243C155.325 13.6602 152.806 11.0097 149.591 11.0097C146.342 11.0097 143.823 13.6602 143.823 17.0243C143.823 20.5243 146.375 23.2767 149.591 23.2767C152.806 23.2767 155.325 20.5243 155.325 17.0243ZM196.095 19.165V11.2476H200.437V7.1699H196.095V1.18932L191.786 3.73786V7.1699H189.466V11.2136H191.753V19.3689C191.753 26.233 196.659 26.9806 198.78 26.9806C199.741 26.9806 200.769 26.7427 200.769 26.7427V22.5291C200.769 22.5291 199.576 22.8349 198.979 22.8349C197.09 22.8349 196.095 21.5777 196.095 19.165ZM67.6522 7.03398C65.9286 7.03398 64.2712 8.29126 63.1443 10.1602V7.20388H58.8352V27.0485H63.1774V18.5194C63.1774 17.3981 63.3431 16.2767 63.6083 15.3592C64.3044 12.9806 65.8623 11.4854 67.6853 11.4854C68.2157 11.4854 69.5416 11.7233 69.5416 11.7233V7.33981C69.5747 7.33981 68.514 7.03398 67.6522 7.03398ZM113.759 7.20388V9.6165C112.732 6.86408 108.92 6.89806 108.92 6.89806C103.749 6.89806 100.401 10.7039 100.401 16.7864C100.401 22.767 103.981 27.4563 109.119 27.4563C110.909 27.4563 112.433 26.9806 113.627 26.0631V26.199C113.627 29.1553 111.837 30.7524 108.555 30.7524C106.334 30.7524 104.379 29.665 104.345 29.665L103.417 29.1214L101.694 33.0291L102.522 33.4709C104.412 34.4563 106.566 35 108.655 35C113.162 35 118.002 32.6553 118.002 26.1311V7.20388H113.759ZM109.384 23.0388C106.566 23.0388 104.71 20.6942 104.71 17.0583C104.71 13.3544 106.268 11.3155 109.052 11.3155C112.168 11.3155 113.56 13.0825 113.56 17.0922C113.593 21.034 112.168 23.0388 109.384 23.0388ZM166.462 22.9029H168.12V27.0146H165.236C163.214 27.0146 162.12 25.9272 162.12 23.8544V8.83495L166.462 6.28641V22.9029ZM187.775 14.6796C187.775 9.34466 185.555 6.76214 180.947 6.76214C178.13 6.76214 176.141 8.66505 175.047 9.85437V7.1699H170.738V27.0146H175.08V18.0097C175.08 17.1602 175.147 16.4466 175.312 15.8689C175.975 13.3544 178.196 11.0437 180.682 11.0437C182.77 11.0437 183.466 12.0631 183.466 15.2913V23.8204C183.466 25.8932 184.527 26.9806 186.549 26.9806H189.433V22.9029H187.775V14.6796ZM164.407 5.43689C165.866 5.43689 167.059 4.21359 167.059 2.71845C167.059 1.2233 165.866 0 164.407 0C162.949 0 161.755 1.2233 161.755 2.71845C161.755 4.21359 162.949 5.43689 164.407 5.43689ZM210.547 24.466C210.481 23.8883 210.282 23.5825 209.951 23.5146V23.4806C210.348 23.3786 210.68 23.0388 210.68 22.5631C210.68 22.1553 210.547 21.8835 210.348 21.7136C210.083 21.5097 209.685 21.4078 209.056 21.4078C208.459 21.4078 208.127 21.4757 207.829 21.5097V25.4175H208.625V23.8204H208.989C209.387 23.8204 209.652 23.9903 209.719 24.432C209.785 24.9757 209.851 25.3155 209.951 25.4515H210.779C210.713 25.3155 210.613 25.0777 210.547 24.466ZM209.022 23.1408H208.592V22.0194C208.724 22.0194 208.857 22.0194 209.089 22.0194C209.685 22.0194 209.951 22.2573 209.951 22.5971C209.917 22.9709 209.52 23.1408 209.022 23.1408ZM209.188 19.3689C207.133 19.3689 205.443 21.1699 205.443 23.4126C205.443 25.6893 207.1 27.4563 209.188 27.4563H209.221C211.31 27.4563 212.967 25.6553 212.967 23.4126C213 21.2039 211.31 19.3689 209.188 19.3689ZM209.254 26.6408H209.221C207.564 26.6408 206.271 25.2136 206.271 23.4126C206.271 21.6456 207.597 20.1845 209.221 20.1845C210.879 20.1845 212.238 21.6456 212.238 23.4126C212.205 25.1796 210.879 26.6408 209.254 26.6408Z" fill="#D52B1E"/>
</g>
<defs>
<clipPath id="clip0_527_1839">
<rect width="213" height="35" fill="white"/>
</clipPath>
</defs>
</svg>
