<svg width="111" height="35" viewBox="0 0 111 35" fill="none" xmlns="http://www.w3.org/2000/svg">
<g clip-path="url(#clip0_527_1831)">
<path d="M13.8849 12.4886V16.2273H22.8506C22.6126 18.2955 21.8985 19.8864 20.7877 20.9205C19.5182 22.1932 17.4553 23.625 13.8849 23.625C8.41029 23.625 4.1258 19.1705 4.1258 13.6818C4.1258 8.19318 8.33095 3.73864 13.8849 3.73864C16.8206 3.73864 19.0422 4.93182 20.629 6.44318L23.2473 3.81818C21.0257 1.67045 18.0107 0 13.8849 0C6.34739 0 0 6.125 0 13.6818C0 21.2386 6.34739 27.3636 13.8849 27.3636C17.9314 27.3636 21.0257 26.0114 23.406 23.5455C25.8656 21.0795 26.659 17.5795 26.659 14.7955C26.659 13.9205 26.5797 13.125 26.5004 12.4886H13.8849Z" fill="#4285F4"/>
<path d="M37.7672 9.38647C32.9273 9.38647 28.8809 13.1251 28.8809 18.216C28.8809 23.3069 32.848 27.0456 37.7672 27.0456C42.6864 27.0456 46.6536 23.3865 46.6536 18.2956C46.6536 13.1251 42.6864 9.38647 37.7672 9.38647ZM37.7672 23.6251C35.0696 23.6251 32.7686 21.3978 32.7686 18.2956C32.7686 15.1137 35.0696 12.966 37.7672 12.966C40.4648 12.966 42.7658 15.1137 42.7658 18.2956C42.7658 21.3978 40.4648 23.6251 37.7672 23.6251Z" fill="#EA4335"/>
<path d="M81.1677 11.3751H81.009C80.1362 10.341 78.47 9.38647 76.3278 9.38647C71.8846 9.38647 68.0762 13.2047 68.0762 18.216C68.0762 23.1478 71.8846 27.0456 76.3278 27.0456C78.47 27.0456 80.1362 26.091 81.009 25.0569H81.1677V26.3297C81.1677 29.6706 79.3428 31.5001 76.4865 31.5001C74.1062 31.5001 72.678 29.8297 72.0433 28.3183L68.7109 29.7501C69.663 32.0569 72.2813 35.0001 76.5658 35.0001C81.0883 35.0001 84.9761 32.2956 84.9761 25.7728V9.86375H81.3263V11.3751H81.1677ZM76.7245 23.6251C74.0268 23.6251 72.0433 21.3183 72.0433 18.2956C72.0433 15.1933 74.1062 12.966 76.7245 12.966C79.3428 12.966 81.4057 15.2728 81.4057 18.3751C81.485 21.3978 79.4221 23.6251 76.7245 23.6251Z" fill="#4285F4"/>
<path d="M57.5231 9.38647C52.6832 9.38647 48.6367 13.1251 48.6367 18.216C48.6367 23.3069 52.6038 27.0456 57.5231 27.0456C62.4423 27.0456 66.4094 23.3865 66.4094 18.2956C66.4094 13.1251 62.4423 9.38647 57.5231 9.38647ZM57.5231 23.6251C54.8254 23.6251 52.5245 21.3978 52.5245 18.2956C52.5245 15.1137 54.8254 12.966 57.5231 12.966C60.2207 12.966 62.5216 15.1137 62.5216 18.2956C62.5216 21.3978 60.2207 23.6251 57.5231 23.6251Z" fill="#FBBC05"/>
<path d="M87.9111 0.397705H91.7196V27.125H87.9111V0.397705Z" fill="#34A853"/>
<path d="M103.462 23.6251C101.478 23.6251 100.13 22.7501 99.1775 20.9206L111 16.0683L110.603 15.0342C109.889 13.0456 107.588 9.38647 103.065 9.38647C98.5428 9.38647 94.7344 12.966 94.7344 18.216C94.7344 23.1478 98.4635 27.0456 103.462 27.0456C107.508 27.0456 109.809 24.5797 110.841 23.1478L107.826 21.1592C106.794 22.6706 105.446 23.6251 103.462 23.6251ZM103.224 12.7274C104.811 12.7274 106.16 13.5228 106.556 14.6365L98.6222 17.9774C98.5428 14.3183 101.24 12.7274 103.224 12.7274Z" fill="#EA4335"/>
</g>
<defs>
<clipPath id="clip0_527_1831">
<rect width="111" height="35" fill="white"/>
</clipPath>
</defs>
</svg>
