<svg width="20" height="20" viewBox="0 0 20 20" fill="none" xmlns="http://www.w3.org/2000/svg">
<path d="M1.89076 0C0.846521 0 0 0.84652 0 1.89076V18.3193C0 19.2475 0.752463 20 1.68067 20H4.57983C4.81188 20 5 19.8119 5 19.5798V5.84034C5 5.37623 5.37623 5 5.84034 5H14.1597C14.6238 5 15 5.37623 15 5.84034V10H11.6807C10.7525 10 10 10.7525 10 11.6807V13.3193C10 14.2475 10.7525 15 11.6807 15H15V19.1597C15 19.6238 15.3762 20 15.8403 20H18.3193C19.2475 20 20 19.2475 20 18.3193V16.6807C20 15.7525 19.2475 15 18.3193 15H15V10H18.3193C19.2475 10 20 9.24754 20 8.31933V1.89076C20 0.846521 19.1535 0 18.1092 0H1.89076Z" fill="white"/>
</svg>
