<svg width="160" height="34" viewBox="0 0 160 34" fill="none" xmlns="http://www.w3.org/2000/svg">
<g clip-path="url(#clip0_527_1825)">
<path d="M56.4769 19.5829L55.5233 22.2713H55.4438C55.2849 21.6651 54.9935 20.7426 54.5167 19.6356L49.4041 6.85265H44.3975V27.2263H47.7087V14.6542C47.7087 13.8635 47.7087 12.9674 47.6822 11.8604C47.6557 11.3069 47.6028 10.8852 47.5763 10.5689H47.6557C47.8147 11.3596 48.0001 11.9395 48.1326 12.3085L54.2783 27.1736H56.6094L62.7021 12.1767C62.8345 11.834 62.967 11.1488 63.0994 10.5689H63.1789C63.0994 12.0713 63.0465 13.4154 63.02 14.2325V27.1472H66.5432V6.79993H61.722L56.4769 19.5829ZM69.8809 12.5457H73.3246V27.1472H69.8809V12.5457ZM71.6292 6.37823C71.0465 6.37823 70.5696 6.58908 70.1723 6.95807C69.7749 7.32706 69.563 7.80148 69.563 8.38133C69.563 8.93482 69.7749 9.40923 70.1723 9.77823C70.5696 10.1472 71.0465 10.3317 71.6292 10.3317C72.212 10.3317 72.7153 10.1209 73.0862 9.77823C73.4835 9.40923 73.6955 8.93482 73.6955 8.38133C73.6955 7.82784 73.4835 7.35342 73.0862 6.95807C72.7418 6.58908 72.2385 6.37823 71.6292 6.37823ZM85.5365 12.4139C84.9008 12.2821 84.2385 12.203 83.6028 12.203C82.0398 12.203 80.6094 12.5457 79.4173 13.2309C78.2253 13.9162 77.2716 14.8651 76.6624 16.0511C76.0266 17.2635 75.7087 18.6604 75.7087 20.2682C75.7087 21.6651 76.0266 22.9038 76.6359 24.0371C77.2451 25.1441 78.0928 26.0402 79.2319 26.6464C80.318 27.2526 81.5895 27.5689 83.02 27.5689C84.6624 27.5689 86.0663 27.2263 87.1789 26.5937L87.2054 26.5674V23.4046L87.073 23.51C86.5696 23.879 85.9869 24.1953 85.4041 24.3798C84.7948 24.5906 84.2385 24.6961 83.7617 24.6961C82.3842 24.6961 81.2981 24.3007 80.5299 23.4309C79.7352 22.5875 79.3379 21.4278 79.3379 19.9782C79.3379 18.4759 79.7352 17.2899 80.5564 16.4201C81.3776 15.5503 82.4637 15.1023 83.7882 15.1023C84.9008 15.1023 86.0398 15.4713 87.073 16.2092L87.2054 16.3147V12.9674L87.1789 12.941C86.7286 12.7565 86.2253 12.5457 85.5365 12.4139ZM96.9008 12.3085C96.0531 12.3085 95.2584 12.572 94.5696 13.1255C93.9869 13.5999 93.5895 14.2852 93.2451 15.1023H93.2186V12.5457H89.7749V27.1472H93.2186V19.6883C93.2186 18.4232 93.4836 17.3689 94.0663 16.6046C94.6491 15.8139 95.3908 15.4185 96.2915 15.4185C96.6094 15.4185 96.9273 15.4976 97.3246 15.5503C97.6955 15.6557 97.9604 15.7612 98.1458 15.893L98.2783 15.9984V12.572L98.1988 12.5457C97.9604 12.3875 97.4835 12.3085 96.9008 12.3085ZM106.278 12.2294C103.868 12.2294 101.934 12.941 100.583 14.3379C99.2054 15.7348 98.5432 17.6588 98.5432 20.0837C98.5432 22.3503 99.2319 24.1953 100.556 25.5395C101.881 26.8573 103.682 27.5426 105.934 27.5426C108.291 27.5426 110.172 26.8309 111.523 25.4077C112.901 23.9844 113.563 22.0868 113.563 19.741C113.563 17.4216 112.927 15.5767 111.629 14.2325C110.384 12.8883 108.556 12.2294 106.278 12.2294ZM109.033 23.4573C108.397 24.2744 107.391 24.6697 106.146 24.6697C104.901 24.6697 103.894 24.2744 103.179 23.4046C102.464 22.5875 102.119 21.4015 102.119 19.8992C102.119 18.3441 102.49 17.1581 103.179 16.3147C103.894 15.4713 104.874 15.0495 106.119 15.0495C107.338 15.0495 108.291 15.4449 108.98 16.2619C109.669 17.079 110.04 18.265 110.04 19.8201C109.987 21.4015 109.695 22.6402 109.033 23.4573ZM121.245 18.6077C120.159 18.1596 119.47 17.817 119.152 17.5271C118.888 17.2635 118.755 16.8945 118.755 16.4201C118.755 16.0247 118.914 15.6294 119.311 15.3658C119.709 15.1023 120.159 14.9705 120.821 14.9705C121.404 14.9705 122.013 15.0759 122.596 15.234C123.179 15.3922 123.709 15.6294 124.133 15.9457L124.265 16.0511V12.8356L124.186 12.8092C123.788 12.6511 123.258 12.493 122.623 12.3612C121.987 12.2557 121.404 12.203 120.927 12.203C119.285 12.203 117.934 12.5984 116.874 13.4681C115.815 14.2852 115.311 15.3922 115.311 16.6837C115.311 17.3689 115.417 17.9751 115.656 18.4759C115.894 18.9767 116.239 19.4511 116.715 19.8464C117.192 20.2154 117.881 20.6371 118.835 21.0325C119.629 21.3751 120.239 21.6387 120.609 21.8495C120.98 22.0604 121.219 22.2976 121.404 22.4821C121.537 22.693 121.616 22.9565 121.616 23.2992C121.616 24.2744 120.874 24.7488 119.364 24.7488C118.782 24.7488 118.172 24.6433 117.457 24.4061C116.742 24.1689 116.08 23.8263 115.523 23.4309L115.391 23.3255V26.6728L115.47 26.6992C115.974 26.9364 116.583 27.0945 117.325 27.279C118.066 27.4108 118.729 27.5162 119.311 27.5162C121.086 27.5162 122.543 27.1209 123.576 26.2511C124.636 25.4077 125.192 24.3271 125.192 22.9302C125.192 21.955 124.927 21.0852 124.344 20.4263C123.576 19.7937 122.623 19.1348 121.245 18.6077ZM134.278 12.2294C131.868 12.2294 129.934 12.941 128.583 14.3379C127.232 15.7348 126.543 17.6588 126.543 20.0837C126.543 22.3503 127.232 24.1953 128.556 25.5395C129.881 26.8573 131.682 27.5426 133.934 27.5426C136.291 27.5426 138.172 26.8309 139.523 25.4077C140.901 23.9844 141.563 22.0868 141.563 19.741C141.563 17.4216 140.927 15.5767 139.629 14.2325C138.384 12.8883 136.556 12.2294 134.278 12.2294ZM137.007 23.4573C136.371 24.2744 135.364 24.6697 134.119 24.6697C132.848 24.6697 131.868 24.2744 131.152 23.4046C130.437 22.5875 130.093 21.4015 130.093 19.8992C130.093 18.3441 130.464 17.1581 131.152 16.3147C131.868 15.4713 132.848 15.0495 134.093 15.0495C135.285 15.0495 136.265 15.4449 136.954 16.2619C137.642 17.079 138.013 18.265 138.013 19.8201C138.013 21.4015 137.669 22.6402 137.007 23.4573ZM159.974 15.3658V12.5457H156.503V8.22319L156.397 8.24955L153.113 9.22474L153.033 9.2511V12.5457H147.841V10.7007C147.841 9.8573 148.053 9.19838 148.424 8.77668C148.795 8.35497 149.351 8.14412 150.04 8.14412C150.517 8.14412 151.02 8.24955 151.576 8.48675L151.709 8.56582V5.58753L151.629 5.56117C151.152 5.40303 150.517 5.29761 149.695 5.29761C148.662 5.29761 147.762 5.53482 146.941 5.93017C146.119 6.37823 145.51 6.98443 145.06 7.80148C144.609 8.59218 144.371 9.48831 144.371 10.5162V12.5457H141.96V15.3395H144.371V27.1472H147.841V15.3658H153.033V22.8775C153.033 25.9612 154.49 27.5162 157.404 27.5162C157.881 27.5162 158.384 27.4371 158.861 27.3581C159.364 27.2526 159.735 27.1209 159.947 27.0154L159.974 26.9891V24.1689L159.841 24.2744C159.629 24.4061 159.444 24.5116 159.126 24.5906C158.861 24.6697 158.623 24.6961 158.437 24.6961C157.748 24.6961 157.272 24.5379 156.927 24.1426C156.609 23.7736 156.45 23.1674 156.45 22.2713V15.3658H159.974Z" fill="#737373"/>
<path d="M0 0H16.2384V16.1566H0V0Z" fill="#F25022"/>
<path d="M17.9336 0H34.172V16.1566H17.9336V0Z" fill="#7FBA00"/>
<path d="M0 17.8435H16.2384V34.0001H0V17.8435Z" fill="#00A4EF"/>
<path d="M17.9336 17.8435H34.172V34.0001H17.9336V17.8435Z" fill="#FFB900"/>
</g>
<defs>
<clipPath id="clip0_527_1825">
<rect width="160" height="34" fill="white"/>
</clipPath>
</defs>
</svg>
